<svg viewBox="0 0 3072 2048" xmlns="http://www.w3.org/2000/svg"><path d="m0 0h3072v2048h-3072z" fill="#00c88d" stroke="#231f20" stroke-miterlimit="10" stroke-width="14.7"/><path d="m1013.4 1074.7 70.6-6.9c4.2 23.7 12.9 41.1 25.9 52.2s30.5 16.7 52.6 16.7 41-4.9 52.8-14.8 17.8-21.4 17.8-34.7-2.5-15.7-7.5-21.7-13.7-11.2-26.1-15.6c-8.5-2.9-27.9-8.2-58.1-15.7-38.9-9.6-66.2-21.5-81.9-35.5-22.1-19.8-33.1-43.9-33.1-72.3s5.2-35.4 15.6-51.4c10.4-15.9 25.3-28.1 44.9-36.4 19.5-8.3 43.1-12.5 70.7-12.5 45.1 0 79.1 9.9 101.8 29.7 22.8 19.8 34.8 46.2 35.9 79.2l-72.6 3.2c-3.1-18.5-9.8-31.7-20-39.8s-25.5-12.1-46-12.1-37.6 4.3-49.5 13c-7.7 5.6-11.5 13-11.5 22.3s3.6 15.8 10.8 21.8c9.1 7.7 31.4 15.7 66.7 24s61.4 17 78.3 25.9 30.1 21.1 39.7 36.5 14.3 34.5 14.3 57.2-5.7 39.9-17.2 57.8c-11.4 18-27.6 31.3-48.5 40.1-20.9 8.7-47 13.1-78.2 13.1-45.4 0-80.3-10.5-104.7-31.5s-38.9-51.6-43.6-91.8z"/><path d="m1458.3 1191.7-128.4-359.3h78.7l90.9 266 88-266h77l-128.7 359.3z"/><path d="m1868.6 1059.5v-60.5h156.4v143.1c-15.2 14.7-37.2 27.7-66.1 38.9-28.8 11.2-58.1 16.8-87.6 16.8s-70.3-7.9-98.3-23.7c-27.9-15.8-48.9-38.3-63-67.7-14.1-29.3-21.1-61.2-21.1-95.7s7.8-70.7 23.5-99.8 38.6-51.4 68.9-66.9c23-11.9 51.7-17.9 86-17.9s79.5 9.4 104.5 28.1c25.1 18.7 41.2 44.6 48.4 77.6l-72.1 13.5c-5.1-17.6-14.6-31.6-28.6-41.8s-31.4-15.3-52.3-15.3c-31.7 0-56.9 10-75.6 30.1s-28.1 49.9-28.1 89.5 9.5 74.6 28.4 96c19 21.3 43.8 32 74.5 32s30.4-3 45.7-8.9c15.3-6 28.4-13.2 39.3-21.7v-45.6h-83.1z"/></svg>